<svg width="38" height="38" viewBox="0 0 38 38" fill="none" xmlns="http://www.w3.org/2000/svg">
<path d="M0 19C0 8.50659 8.50659 0 19 0C29.4934 0 38 8.50659 38 19C38 29.4934 29.4934 38 19 38C8.50659 38 0 29.4934 0 19Z" fill="#1434CB"/>
<g clip-path="url(#clip0_51902_41677)">
<path fill-rule="evenodd" clip-rule="evenodd" d="M25.0976 9.04819C25.0528 9.07955 25.0188 9.12393 25.0002 9.1753L24.7458 9.87028C24.5466 10.4153 24.2308 10.9102 23.8205 11.3205C23.4102 11.7308 22.9153 12.0466 22.3703 12.2458L21.6753 12.5002C21.6239 12.5188 21.5796 12.5528 21.5482 12.5976C21.5168 12.6423 21.5 12.6956 21.5 12.7503C21.5 12.8049 21.5168 12.8582 21.5482 12.903C21.5796 12.9477 21.6239 12.9817 21.6753 13.0004L22.3703 13.2547C22.9153 13.454 23.4102 13.7698 23.8205 14.1801C24.2308 14.5904 24.5466 15.0853 24.7458 15.6303L25.0002 16.3247C25.0188 16.3761 25.0528 16.4205 25.0976 16.4518C25.1423 16.4832 25.1956 16.5 25.2503 16.5C25.3049 16.5 25.3582 16.4832 25.403 16.4518C25.4477 16.4205 25.4817 16.3761 25.5004 16.3247L25.7547 15.6303C25.954 15.0853 26.2698 14.5904 26.6801 14.1801C27.0904 13.7698 27.5853 13.454 28.1303 13.2547L28.8247 13.0004C28.8761 12.9817 28.9205 12.9477 28.9518 12.903C28.9832 12.8582 29 12.8049 29 12.7503C29 12.6956 28.9832 12.6423 28.9518 12.5976C28.9205 12.5528 28.8761 12.5188 28.8247 12.5002L28.1303 12.2458C27.5853 12.0466 27.0904 11.7308 26.6801 11.3205C26.2698 10.9102 25.954 10.4153 25.7547 9.87028L25.5004 9.1753C25.4817 9.12393 25.4477 9.07955 25.403 9.04819C25.3582 9.01682 25.3049 9 25.2503 9C25.1956 9 25.1423 9.01682 25.0976 9.04819ZM20.748 14.0402C20.7107 14.0663 20.6823 14.1033 20.6668 14.1461L20.4548 14.7252C20.2888 15.1794 20.0256 15.5918 19.6837 15.9337C19.3418 16.2756 18.9294 16.5388 18.4752 16.7048L17.8961 16.9168C17.8533 16.9323 17.8163 16.9607 17.7902 16.998C17.764 17.0353 17.75 17.0797 17.75 17.1252C17.75 17.1708 17.764 17.2152 17.7902 17.2525C17.8163 17.2898 17.8533 17.3181 17.8961 17.3336L18.4752 17.5456C18.9294 17.7116 19.3418 17.9748 19.6837 18.3167C20.0256 18.6586 20.2888 19.0711 20.4548 19.5252L20.6668 20.1039C20.6823 20.1467 20.7107 20.1837 20.748 20.2098C20.7853 20.236 20.8297 20.25 20.8752 20.25C20.9208 20.25 20.9652 20.236 21.0025 20.2098C21.0398 20.1837 21.0681 20.1467 21.0836 20.1039L21.2956 19.5252C21.4616 19.0711 21.7248 18.6586 22.0667 18.3167C22.4086 17.9748 22.8211 17.7116 23.2752 17.5456L23.8539 17.3336C23.8967 17.3181 23.9337 17.2898 23.9598 17.2525C23.986 17.2152 24 17.1708 24 17.1252C24 17.0797 23.986 17.0353 23.9598 16.998C23.9337 16.9607 23.8967 16.9323 23.8539 16.9168L23.2752 16.7048C22.8211 16.5388 22.4086 16.2756 22.0667 15.9337C21.7248 15.5918 21.4616 15.1794 21.2956 14.7252L21.0836 14.1461C21.0681 14.1033 21.0398 14.0663 21.0025 14.0402C20.9652 14.014 20.9208 14 20.8752 14C20.8297 14 20.7853 14.014 20.748 14.0402Z" fill="white"/>
<path d="M26.4922 18.0574C26.3463 20.6968 24.167 22.7919 21.5 22.7919L17.0805 27.2263L18.8483 29L22.6184 25.2172C26.2301 24.6754 29 21.5498 29 17.7752C29 16.921 28.8582 16.1 28.5968 15.3347L26.4922 18.0574Z" fill="white"/>
<path d="M21.454 10.25H16.5C12.3579 10.25 9 13.6191 9 17.7752C9 21.9312 12.3579 25.3003 16.5 25.3003V22.7919C13.7386 22.7919 11.5 20.5459 11.5 17.7752C11.5 15.0045 13.7386 12.7584 16.5 12.7584H19.515L21.454 10.25Z" fill="white"/>
</g>
<defs>
<clipPath id="clip0_51902_41677">
<rect width="20" height="20" fill="white" transform="translate(9 9)"/>
</clipPath>
</defs>
</svg>
