<svg width="72" height="23" viewBox="0 0 72 23" fill="none" xmlns="http://www.w3.org/2000/svg">
<path fill-rule="evenodd" clip-rule="evenodd" d="M51.2129 15.3773C51.2266 11.8765 48.3276 10.3547 46.008 9.1371C44.4501 8.31936 43.1536 7.63876 43.176 6.58798C43.1924 5.79284 43.9514 4.94512 45.6074 4.73155C47.5467 4.54405 49.5007 4.88465 51.2621 5.71727L52.2709 1.02527C50.5562 0.380795 48.7404 0.0470073 46.9086 0.0395508C41.2571 0.0395508 37.2519 3.05255 37.2157 7.36998C37.1796 10.5538 40.0644 12.3413 42.2429 13.4026C44.4771 14.4868 45.2296 15.1834 45.2197 16.156C45.2197 17.6444 43.4356 18.2983 41.7894 18.3246C38.9937 18.3691 37.3367 17.596 36.0228 16.983L35.8981 16.9248L34.85 21.7811C36.1906 22.3988 38.6647 22.9344 41.2309 22.9607C47.2536 22.9607 51.1964 19.9838 51.2161 15.3773H51.2129ZM27.4571 0.443694L18.1684 22.6124H12.1063L7.53585 4.92212C7.25657 3.83126 7.01671 3.43369 6.17228 2.97369C4.78571 2.22784 2.51857 1.52469 0.514282 1.08769L0.652282 0.430551H10.4076C11.7201 0.435934 12.8343 1.39413 13.0361 2.69112L15.4511 15.5218L21.4377 0.443694H27.4571ZM71.4857 22.6058H66.1826L65.4893 19.3037H58.1326L56.9366 22.6124H50.9171L59.5159 2.07012C59.9233 1.08209 60.8884 0.439126 61.9571 0.443694H66.8561L71.4857 22.6058ZM59.782 14.7596L62.8016 6.43355L64.5397 14.7596H59.782ZM30.9137 22.6124L35.6714 0.443694H29.9214L25.1769 22.6124H30.9137Z" fill="#1434CB"/>
</svg>
